<?xml version="1.0" encoding="utf-8"?>
<!-- Generator: Adobe Illustrator 22.0.1, SVG Export Plug-In . SVG Version: 6.00 Build 0)  -->
<svg version="1.1" id="Ebene_1" xmlns="http://www.w3.org/2000/svg" xmlns:xlink="http://www.w3.org/1999/xlink" x="0px" y="0px"
	 viewBox="0 0 1024 570.1" style="enable-background:new 0 0 1024 570.1;" xml:space="preserve">
<style type="text/css">
	.st0{fill:#FFFFFF;}
	.st1{fill:#BA2A31;}
	.st2{fill:none;stroke:#FFFFFF;stroke-width:0.7357;stroke-linecap:round;stroke-linejoin:round;stroke-miterlimit:10;}
</style>
<title>logo</title>
<g>
	<g>
		<path class="st0" d="M320,23.9v211.3c0,10.4-8.4,19.2-18.8,19.8l-3,0.2v12.1c0,3.5-2.8,6.4-6.3,6.6s-6.3-2.5-6.3-5.9v-12.1
			L37,268.7v12.1c0,3.5-2.8,6.4-6.3,6.6c-3.5,0.2-6.3-2.5-6.3-5.9l0-12.1l-3,0.2C11,270,2.6,262.1,2.6,251.7l0-211.3
			c0-10.4,8.4-19.2,18.8-19.8L301.2,6.1C311.6,5.5,320,13.5,320,23.9z M307.5,235.8V24.5c0-3.5-2.8-6.2-6.3-6L21.4,33.2
			c-3.5,0.2-6.3,3.2-6.3,6.6l0,211.3c0,3.5,2.8,6.1,6.3,6l279.7-14.6C304.7,242.2,307.5,239.3,307.5,235.8z"/>
		<path class="st1" d="M299.7,225.2c2.3,1.4,3.4,4.5,2.4,7.2c-0.9,2.6-3.5,4.5-6.2,4.5c-2.6,0-4.9-1.7-5.7-4.1
			C288.6,227.3,294.9,222.3,299.7,225.2z"/>
		<path class="st0" d="M290.8,40.8c9.9,57.4,9.9,116.1,0,174.6c-0.5,2.8-2.8,5.1-5.6,5.5c-41.1,5.6-82.5,9.5-123.9,11.6
			c-41.4,2.2-82.8,2.6-123.9,1.3c-2.8-0.1-5.2-2.1-5.6-4.9c-9.9-57.4-9.9-116.1,0-174.6c0.5-2.8,2.8-5.1,5.6-5.5
			C119.6,37.7,203,33.4,285.2,36C288,36,290.3,38.1,290.8,40.8z M279.3,209.1c8.6-53.8,8.6-107.9,0-160.8
			C201,46.1,121.6,50.2,43.4,60.6c-8.6,53.8-8.6,107.9,0,160.8C121.6,223.7,201,219.5,279.3,209.1z"/>
		<path class="st0" d="M275.8,101.6c1.2,22.4,0.9,45.2-0.9,67.7c-0.3,3.3-3,5.9-6.2,6.1c-0.2,0-0.3,0-0.5,0c-3.4-0.1-6-3-5.7-6.4
			c1.8-22,2.1-44.2,0.9-66c-0.2-3.4,2.5-6.5,5.9-6.9C272.7,95.7,275.6,98.2,275.8,101.6z"/>
		<path class="st0" d="M274.3,81.4c0.3,3.4-2.2,6.6-5.6,7.1c-0.2,0-0.4,0.1-0.6,0.1c-3.2,0.2-5.9-2.1-6.2-5.3
			c-0.6-6.2-1.3-12.5-2.2-18.7c-0.5-3.4,1.9-6.7,5.4-7.3c3.4-0.6,6.6,1.6,7.1,5C272.9,68.6,273.6,75.1,274.3,81.4z"/>
	</g>
	<g>
		<g>
			<path class="st1" d="M185.8,120.7c0,0-1.5-5.3,2.8-13.8s15.3-11.3,15.3-11.3c-15.2-4.5-32.6-3.6-55.5,1.5c0,0-5.4,2.9-6.8,11.8
				s2.9,15,2.9,15C153.5,121.8,177.5,120.4,185.8,120.7z"/>
			<path class="st1" d="M233.6,116.1c0,0-7.5-1.7-16.9,1.9c-9.5,3.6-17.1,13.2-17.1,13.2c0,6.7-3.6,9.8-17.1,18.5
				c15.6-9.1,27.7,5.7,21.8,14.8C224.9,149.2,236.1,135.4,233.6,116.1z"/>
			<path class="st1" d="M115.9,164.7c-16.5,6.2-22.1,24.4-22.1,24.4c15.2,4.5,36,3.2,58.8-1.9c0,0,2-25.3-8.2-24
				C137.9,165,121,165.3,115.9,164.7z"/>
			<path class="st1" d="M98,153.8c0-6.7,8.7-14.6,21.9-21.1c0,0-11.6-14-29.8-10c-17.2,12.8-25.3,26-26,38.6
				C78.7,144.1,98,153.8,98,153.8L98,153.8z"/>
		</g>
		
			<ellipse transform="matrix(0.9679 -0.2512 0.2512 0.9679 -31.0246 41.9611)" class="st2" cx="148.8" cy="142.5" rx="52.3" ry="19.1"/>
		
			<ellipse transform="matrix(0.9564 -0.292 0.292 0.9564 -35.1279 49.6821)" class="st2" cx="148.8" cy="142.5" rx="87.6" ry="44.1"/>
	</g>
	<g>
		<path class="st0" d="M437.5,201.7l-20.6,65.5l-10.5,0.5l-20.3-63.4v64.5l-24.1,1.3V169.4l32.6-1.7l17.1,54.2l17.3-56l32.3-1.7
			v100.7l-23.8,1.2V201.7z"/>
		<path class="st0" d="M523.3,159.3c27.3-1.4,44.1,19.4,44.1,49.8c0,30.4-16.8,53-44.1,54.4c-27.3,1.4-44.1-19.4-44.1-49.8
			C479.3,183.4,496.1,160.7,523.3,159.3z M523.3,180.9c-12.3,0.6-19.1,14-19.1,31.5c0,17.4,6.8,30.1,19.1,29.5
			c12.4-0.6,19.2-14.1,19.2-31.5C542.6,192.9,535.8,180.3,523.3,180.9z"/>
		<path class="st0" d="M609.5,199.2v58l-24.4,1.3V157.7l25-1.3l29.1,53.6v-55.1l24.2-1.3v100.7l-23.2,1.2L609.5,199.2z"/>
	</g>
	<g>
		<path class="st0" d="M2.2,329.2l60.9-3.2v21l-36.4,1.9V367l35.3-1.8v21L26.8,388v19.6l36.4-1.9v21l-60.9,3.2V329.2z M25.6,319.5
			L41.2,297l18.9-1l-20.3,22.8L25.6,319.5z"/>
		<path class="st0" d="M158.9,357.2l-20.6,65.6l-10.4,0.5l-20.3-63.4v64.5l-24.1,1.3V324.9l32.6-1.7l17.1,54.2l17.3-56l32.3-1.7
			v100.7l-23.8,1.2V357.2z"/>
		<path class="st0" d="M205,318.6l24.5-1.3V418l-24.5,1.3V318.6z"/>
		<path class="st0" d="M256.5,386.6c5.9,6,14.8,9.9,24.5,9.4c7.3-0.4,11.7-4.4,11.7-9.4c0-6-5.9-8.6-14.4-11.3
			c-13-4-30.4-8.7-30.4-30c0-16.2,12.6-31.3,35.4-32.5c12.7-0.7,24.1,2.8,32.4,9.8l-11.4,18.7c-6.2-5.4-14.2-7.6-21.4-7.2
			c-6.8,0.4-10.1,4-10.1,8.5c0,5.4,5.8,7.9,14.4,10.6c13,4,30.3,9.4,30.3,29.8c0,19.2-13.3,32.9-36.2,34.1
			c-16.4,0.9-28-3.5-36.5-11.2L256.5,386.6z"/>
		<path class="st0" d="M339,382.3c5.9,6,14.8,9.9,24.5,9.4c7.3-0.4,11.7-4.4,11.7-9.4c0-6-5.9-8.6-14.4-11.3c-13-4-30.4-8.7-30.4-30
			c0-16.2,12.6-31.3,35.4-32.5c12.7-0.7,24.1,2.8,32.4,9.8L386.9,337c-6.2-5.4-14.2-7.6-21.4-7.2c-6.8,0.4-10.1,4-10.1,8.5
			c0,5.4,5.8,7.9,14.4,10.6c13,4,30.3,9.4,30.3,29.8c0,19.2-13.3,32.9-36.2,34.1c-16.4,0.9-28-3.5-36.5-11.2L339,382.3z"/>
		<path class="st0" d="M417.2,307.5l24.5-1.3v100.7l-24.5,1.3V307.5z"/>
		<path class="st0" d="M503.4,301.3c27.3-1.4,44.1,19.4,44.1,49.8c0,30.4-16.8,53-44.1,54.4c-27.3,1.4-44.1-19.4-44.1-49.8
			C459.4,325.4,476.2,302.8,503.4,301.3z M503.4,322.9c-12.3,0.6-19.1,14-19.1,31.5c0,17.4,6.8,30.2,19.1,29.5
			c12.4-0.7,19.2-14.1,19.2-31.5C522.7,334.9,515.9,322.3,503.4,322.9z"/>
		<path class="st0" d="M589.7,341.2v58l-24.4,1.3V299.8l25-1.3l29.1,53.6v-55.1l24.2-1.3v100.7l-23.2,1.2L589.7,341.2z"/>
	</g>
	<g>
		<path class="st0" d="M133,463.4l40.6-2.1c22-1.1,32.9,13.7,32.9,31.5c0,17.7-10.9,33.3-32.9,34.5l-16.1,0.8v34.7l-24.5,1.3V463.4z
			 M170.6,482.4l-13,0.7v24l13-0.7c6.5-0.3,11.1-5.3,11.1-12.5C181.6,486.5,177.1,482,170.6,482.4z"/>
		<path class="st0" d="M254.8,523l-9.1,0.5v34.7l-24.5,1.3V458.8l41.2-2.2c19.7-1,32.3,12.5,32.3,31.1c0,17.1-8.8,26.1-16.4,29.8
			l17.1,38.1l-27.3,1.4L254.8,523z M258.6,477.8l-12.9,0.7v24l12.9-0.7c6.5-0.3,11.2-5.3,11.2-12.5
			C269.8,481.7,265.1,477.4,258.6,477.8z"/>
		<path class="st0" d="M313.4,453.9l60.9-3.2v21l-36.3,1.9v18.1l35.3-1.8v21l-35.3,1.8v19.6l36.3-1.9v21l-60.9,3.2V453.9z
			 M336.7,444.3l15.6-22.6l18.9-1l-20.3,22.8L336.7,444.3z"/>
		<path class="st0" d="M394.6,449.7l60.9-3.2v21l-36.3,1.9v18.1l35.3-1.8v21l-35.3,1.8v40.6l-24.5,1.3V449.7z"/>
		<path class="st0" d="M473.2,445.6l60.9-3.2v21l-36.4,1.9v18.1l35.3-1.8v21l-35.3,1.8V524l36.4-1.9v21l-60.9,3.2V445.6z
			 M496.5,435.9l15.6-22.6l18.9-1l-20.3,22.8L496.5,435.9z"/>
		<path class="st0" d="M588.1,505.6L579,506v34.7l-24.5,1.3V441.3l41.2-2.2c19.7-1,32.3,12.5,32.3,31.1c0,17.1-8.8,26.1-16.4,29.8
			l17.1,38.1l-27.3,1.4L588.1,505.6z M591.8,460.4L579,461v24l12.9-0.7c6.5-0.3,11.2-5.3,11.2-12.5
			C603.1,464.3,598.4,460,591.8,460.4z"/>
		<path class="st0" d="M646.6,436.5l60.9-3.2v21l-36.3,1.9v18.1l35.3-1.8v21l-35.3,1.8V515l36.3-1.9v21l-60.9,3.2V436.5z
			 M669.9,426.8l15.6-22.6l18.9-1l-20.3,22.8L669.9,426.8z"/>
		<path class="st0" d="M727.9,432.3l60.9-3.2v21l-36.4,1.9v18.1l35.3-1.8v21l-35.3,1.8v19.6l36.4-1.9v21l-60.9,3.2V432.3z"/>
		<path class="st0" d="M821.7,502.9c7.3-0.4,13.5,5.5,13.5,12.7c0,7.4-6.2,13.8-13.5,14.1c-7.4,0.4-13.6-5.3-13.6-12.7
			C808,509.8,814.3,503.3,821.7,502.9z"/>
		<path class="st0" d="M847.4,476.5c0-30.8,17.1-53,44.1-54.4c21.8-1.1,31.4,12.4,36.2,24.5l-20.1,9.7c-2.6-7.7-8-13-16.1-12.6
			c-12,0.6-19.1,13.8-19.1,31.5c0,17.7,7.1,30.1,19.1,29.5c8.2-0.4,13.8-7.1,16.1-15.3l20.3,7.5c-4.7,12.6-14.4,28.2-36.4,29.4
			C864.5,527.7,847.4,507.1,847.4,476.5z"/>
		<path class="st0" d="M997.2,477.8l-29.4,1.5v41.1l-24.5,1.3V421l24.5-1.3v38.2l29.4-1.5v-38.2l24.5-1.3v100.7l-24.5,1.3V477.8z"/>
	</g>
</g>
</svg>
