<svg id="Ebene_1" data-name="Ebene 1" xmlns="http://www.w3.org/2000/svg" viewBox="0 0 1024 570.1"><defs><style>.cls-1{fill:#fff;}.cls-2{fill:#ba2a31;}.cls-3{fill:none;stroke:#fff;stroke-linecap:round;stroke-linejoin:round;stroke-width:0.74px;}</style></defs><title>logo</title><path class="cls-1" d="M324,18.2V234.07A20.2,20.2,0,0,1,305,254l-3,.16v12.23a6.92,6.92,0,0,1-4.42,6.56,6.18,6.18,0,0,1-8.58-5.7V255L36,268.18v12.28a6.9,6.9,0,0,1-7.95,6.75A6.18,6.18,0,0,1,23,281.05v-12.3l-3,.16A17.81,17.81,0,0,1,1,251V35.09A20.42,20.42,0,0,1,20.17,15L304.83.09A18,18,0,0,1,324,18.2ZM312,234.74v-216a6.06,6.06,0,0,0-6.45-6.11l-286.08,15A6.89,6.89,0,0,0,13,34.31V250.36a6.06,6.06,0,0,0,6.47,6.1l286.08-14.95A6.87,6.87,0,0,0,312,234.74Z" transform="translate(0 -0.06)"/><path class="cls-2" d="M303.76,223.82a6.17,6.17,0,0,1,2.46,7.31,6.88,6.88,0,0,1-6.34,4.55,6,6,0,0,1-5.79-4.2C292.37,225.94,298.85,220.86,303.76,223.82Z" transform="translate(0 -0.06)"/><path class="cls-1" d="M294.66,35.52a525.46,525.46,0,0,1,0,178.24,6.84,6.84,0,0,1-5.76,5.58c-42,5.71-84.22,9.68-126.48,11.89S77.91,233.89,36,232.56a6,6,0,0,1-5.76-5,525.46,525.46,0,0,1,0-178.24A6.83,6.83,0,0,1,36,43.78a1522.52,1522.52,0,0,1,253-13.21A5.93,5.93,0,0,1,294.66,35.52ZM282.88,207.36a512.78,512.78,0,0,0,0-164.2A1510.39,1510.39,0,0,0,42,55.75,512.78,512.78,0,0,0,42,220,1511.68,1511.68,0,0,0,282.88,207.36Z" transform="translate(0 -0.06)"/><path class="cls-1" d="M279.35,97.57a507,507,0,0,1-.92,69.15,6.81,6.81,0,0,1-6.36,6.18h-.54a6,6,0,0,1-5.84-6.57A494.12,494.12,0,0,0,266.58,99a6.8,6.8,0,0,1,6-7A6,6,0,0,1,279.35,97.57Z" transform="translate(0 -0.06)"/><path class="cls-1" d="M277.77,77A6.78,6.78,0,0,1,272,84.23c-.22,0-.42,0-.63.06a6,6,0,0,1-6.35-5.44c-.62-6.33-1.37-12.74-2.25-19.07a6.79,6.79,0,0,1,5.48-7.46,6,6,0,0,1,7.19,5.07C276.36,63.88,277.14,70.47,277.77,77Z" transform="translate(0 -0.06)"/><path class="cls-2" d="M187.4,117.12s-1.56-5.45,2.85-14.11S205.9,91.44,205.9,91.44c-15.57-4.58-33.33-3.7-56.64,1.49,0,0-5.52,2.95-6.92,12.09a22.21,22.21,0,0,0,2.94,15.28C154.47,118.19,179,116.74,187.4,117.12Z" transform="translate(0 -0.06)"/><path class="cls-2" d="M236.26,112.39a32.3,32.3,0,0,0-17.2,1.92c-9.69,3.71-17.42,13.46-17.42,13.46,0,6.84-3.67,10-17.47,18.92,15.92-9.31,28.29,5.81,22.31,15.1C227.4,146.21,238.81,132.05,236.26,112.39Z" transform="translate(0 -0.06)"/><path class="cls-2" d="M116.05,162.05c-16.9,6.32-22.6,24.89-22.6,24.89,15.57,4.58,36.75,3.22,60.05-2,0,0,2-25.8-8.35-24.48C138.51,162.29,121.32,162.57,116.05,162.05Z" transform="translate(0 -0.06)"/><path class="cls-2" d="M97.77,150.92c0-6.85,8.85-14.86,22.36-21.5,0,0-11.87-14.29-30.43-10.21-17.52,13.11-25.87,26.51-26.55,39.42,15-17.64,34.62-7.71,34.62-7.71Z" transform="translate(0 -0.06)"/><path class="cls-3" d="M201.64,127.77c0,11.1-23.25,25.27-51.94,31.67S97.77,162,97.77,150.92,121,125.64,149.7,119.25,201.64,116.67,201.64,127.77Z" transform="translate(0 -0.06)"/><path class="cls-3" d="M236.26,120.06c0,25.68-38.75,55.14-86.56,65.79s-86.55-1.54-86.55-27.23,38.75-55.14,86.55-65.79S236.26,94.37,236.26,120.06Z" transform="translate(0 -0.06)"/><path class="cls-1" d="M443.17,200l-20.53,67-10.42.56L392,202.75v65.87l-24,1.28V166.83l33.15-1.73,17.43,55.22,17.58-57L469,161.55V264.6l-24,1.27V200Z" transform="translate(0 -0.06)"/><path class="cls-1" d="M492,160.42l62-3.24v21.29l-37,1.93v18.53l36-1.88v21.41l-36,1.88v20.07l37-1.93v21.28L492,263Z" transform="translate(0 -0.06)"/><path class="cls-1" d="M575,156.05l25-1.31V257.39l-25,1.3Z" transform="translate(0 -0.06)"/><path class="cls-1" d="M647,195.83V255l-25,1.31V153.55l25.42-1.33L677,206.75V150.56l25-1.31V252.12l-23.63,1.24Z" transform="translate(0 -0.06)"/><path class="cls-1" d="M725,148.22,787,145v21.28l-37,1.93v18.53l36-1.88v21.42l-36,1.88v20.06l37-1.93v21.29l-62,3.23Z" transform="translate(0 -0.06)"/><path class="cls-1" d="M.13,330,25,328.69v81.15l33-1.74v21.75l-58,3V330Z" transform="translate(0 -0.06)"/><path class="cls-1" d="M74,326.17l25-1.31V427.53l-25,1.31Z" transform="translate(0 -0.06)"/><path class="cls-1" d="M121,323.72l62-3.23v21.28l-37,1.93v18.53l36-1.88v21.42l-36,1.87v20.07l37-1.93v21.29l-62,3.23Z" transform="translate(0 -0.06)"/><path class="cls-1" d="M204,319l47-2.46c19.49-1,28.15,11.49,28.15,24.76,0,12.81-7.26,21.67-17,24.49,10.68,1.14,18.72,11.37,18.72,24.17,0,15.11-8.82,28.38-28.31,29.39L204,421.89V319Zm40.77,38.52c5.72-.29,8.82-4.62,8.82-10.33s-3.1-9.72-8.82-9.42L229,338.6v19.74Zm.77,41.77c6.18-.33,9.75-4.68,9.75-11.16,0-5.71-3.57-10.3-9.75-10L229,379v21.14Z" transform="translate(0 -0.06)"/><path class="cls-1" d="M300,314.22l25-1.3v81.13l33-1.72v21.75l-58,3Z" transform="translate(0 -0.06)"/><path class="cls-1" d="M374,310.49l25-1.31V411.83l-25,1.3Z" transform="translate(0 -0.06)"/><path class="cls-1" d="M447,350.27v59.2l-25,1.31V308l25.42-1.33L477,361.19V305l25-1.31V406.56l-23.63,1.24Z" transform="translate(0 -0.06)"/><path class="cls-1" d="M565.29,299.5c18.73-1,30.16,9.81,35.49,22.9l-20.1,10.17c-2.59-6.55-7.77-11.75-15.38-11.35-11.43.59-19.65,11.51-19.65,31.71s8.22,30.24,19.65,29.65c5.93-.31,10.81-2.54,13.7-5.57V365.83l-17,.89v-21.3l40-2.09v42.2c-9.14,10.81-20.87,18-36.7,18.79-27,1.4-44.79-18.47-44.79-50.07S538.33,300.91,565.29,299.5Z" transform="translate(0 -0.06)"/><path class="cls-1" d="M627.65,369.31A33,33,0,0,0,652.71,379c7.43-.39,11.91-4.48,11.91-9.57,0-6.18-6-8.79-14.69-11.57-13.3-4.09-31.09-8.87-31.09-30.62,0-16.51,12.84-32,36.19-33.21,13-.68,24.6,2.88,33.11,10l-11.6,19.12a31.07,31.07,0,0,0-21.82-7.35c-7,.36-10.36,4.09-10.36,8.72,0,5.56,5.87,8,14.69,10.8,13.3,4.09,30.94,9.65,30.94,30.48,0,19.59-13.61,33.57-37,34.79-16.7.87-28.61-3.6-37.28-11.48Z" transform="translate(0 -0.06)"/><path class="cls-1" d="M138.81,538.82a32.9,32.9,0,0,0,25.05,9.65c7.43-.39,11.91-4.48,11.91-9.57,0-6.17-6-8.78-14.69-11.57-13.3-4.08-31.1-8.86-31.1-30.62,0-16.5,12.85-32,36.2-33.21,13-.67,24.6,2.88,33.11,10l-11.6,19.11a31.09,31.09,0,0,0-21.82-7.35c-7,.37-10.36,4.1-10.36,8.72,0,5.56,5.87,8,14.69,10.8,13.3,4.09,30.94,9.65,30.94,30.48,0,19.6-13.61,33.57-37,34.79-16.7.87-28.62-3.6-37.28-11.48Z" transform="translate(0 -0.06)"/><path class="cls-1" d="M219,462.61l62-3.23v21.28l-37,1.93v18.53l36-1.88v21.42l-36,1.88V542.6l37-1.93V562l-62,3.23V462.61Z" transform="translate(0 -0.06)"/><path class="cls-1" d="M326,500v59.74L302,561V458.24l25.42-1.33L357,511.44V455.25l25-1.31V557.3l-24.07,1.26Z" transform="translate(0 -0.06)"/><path class="cls-1" d="M404,452.76l36.2-1.89c29.39-1.54,46.56,18.55,46.56,49.09s-17,52.26-46.56,53.8L404,555.65ZM440.14,532c13.3-.7,21-12.82,21-30.72,0-19-7.27-29.4-21-28.68l-11.14.58v59.4Z" transform="translate(0 -0.06)"/><path class="cls-1" d="M503.4,448l25.6-1.31v66.49c0,10.33,5,16.09,15.08,15.57C554,528.24,559,522,559,511.63v-67l25-1.3v66.79c0,24.38-15.32,39.22-39.92,40.51S504,538.71,504,514.33V448Z" transform="translate(0 -0.06)"/><path class="cls-1" d="M632,484.57v59.19l-25,1.31V442.28L632.42,441,662,495.48V439.29L687,438V540.85l-23.64,1.23Z" transform="translate(0 -0.06)"/><path class="cls-1" d="M751.28,433.77c18.74-1,30.17,9.82,35.5,22.91l-20.1,10.17c-2.6-6.55-7.77-11.75-15.4-11.35-11.42.59-19.64,11.51-19.64,31.72s8.22,30.25,19.64,29.66c6-.32,10.82-2.54,13.72-5.58V500.12L748,501v-21.3l40-2.09v42.21c-9.14,10.81-20.87,18-36.72,18.79-27,1.41-44.78-18.48-44.78-50.08C706.5,456.78,724.32,435.18,751.28,433.77Z" transform="translate(0 -0.06)"/><path class="cls-1" d="M819.7,508.18a13.13,13.13,0,0,1,13.77,13,14.82,14.82,0,0,1-13.77,14.46,13.08,13.08,0,0,1-13.92-13A14.93,14.93,0,0,1,819.7,508.18Z" transform="translate(0 -0.06)"/><path class="cls-1" d="M845.92,481.2c0-31.47,17.48-54.14,45-55.58,22.28-1.16,32,12.68,37,25.07l-20.58,9.87c-2.64-7.88-8.2-13.3-16.4-12.88-12.21.64-19.49,14.13-19.49,32.18s7.28,30.78,19.49,30.14c8.36-.43,14.09-7.21,16.4-15.66l20.72,7.71c-4.79,12.9-14.69,28.84-37.12,30C863.4,533.51,845.92,512.51,845.92,481.2Z" transform="translate(0 -0.06)"/><path class="cls-1" d="M999,482.61l-30,1.57V526l-25,1.3V424.68l25-1.31v38.91l30-1.57V421.79l25-1.3V523.15l-25,1.31Z" transform="translate(0 -0.06)"/></svg>